<?xml version="1.0" encoding="UTF-8"?>
<svg id="b" data-name="Layer 2" xmlns="http://www.w3.org/2000/svg" xmlns:xlink="http://www.w3.org/1999/xlink" viewBox="0 0 946.53 1278.19">
  <defs>
    <clipPath id="d">
      <path d="M442.21,0h62.11V62.11h-62.11V0Zm110.55,0h62.11V62.11h-62.11V0Zm-221.11,110.55h62.11v62.11h-62.11v-62.11Zm110.55,0h62.11v62.11h-62.11v-62.11Zm110.55,0h62.11v62.11h-62.11v-62.11Zm-221.11,110.55h62.11v62.11h-62.11v-62.11Zm110.55,0h62.11v62.11h-62.11v-62.11Zm110.55,0h62.11v62.11h-62.11v-62.11Zm-221.11,110.55h62.11v62.11h-62.11v-62.11Zm110.55,0h62.11v62.11h-62.11v-62.11Zm110.55,0h62.11v62.11h-62.11v-62.11Zm-221.11,110.55h62.11v62.11h-62.11v-62.11Zm110.55,0h62.11v62.11h-62.11v-62.11Zm110.55,0h62.11v62.11h-62.11v-62.11Zm-221.11,110.55h62.11v62.11h-62.11v-62.11Zm110.55,0h62.11v62.11h-62.11v-62.11Zm110.55,0h62.11v62.11h-62.11v-62.11Zm-221.11,110.55h62.11v62.11h-62.11v-62.11Zm110.55,0h62.11v62.11h-62.11v-62.11Zm110.55,0h62.11v62.11h-62.11v-62.11Zm-221.11,110.55h62.11v62.11h-62.11v-62.11Zm110.55,0h62.11v62.11h-62.11v-62.11Zm110.55,0h62.11v62.11h-62.11v-62.11Zm-221.11,110.55h62.11v62.11h-62.11v-62.11Zm110.55,0h62.11v62.11h-62.11v-62.11Zm110.55,0h62.11v62.11h-62.11v-62.11Zm-221.11,110.55h62.11v62.11h-62.11v-62.11Zm110.55,0h62.11v62.11h-62.11v-62.11Zm110.55,0h62.11v62.11h-62.11v-62.11Zm-221.11,110.55h62.11v62.11h-62.11v-62.11Zm110.55,0h62.11v62.11h-62.11v-62.11Zm110.55,0h62.11v62.11h-62.11v-62.11ZM221.11,331.66h62.11v62.11h-62.11v-62.11Zm0,110.55h62.11v62.11h-62.11v-62.11Zm0,110.55h62.11v62.11h-62.11v-62.11Zm-110.55-221.1h62.11v62.11h-62.11v-62.11Zm0,110.55h62.11v62.11h-62.11v-62.11Zm0,110.55h62.11v62.11h-62.11v-62.11ZM0,331.66H62.11v62.11H0v-62.11Zm0,110.55H62.11v62.11H0v-62.11Zm0,110.55H62.11v62.11H0v-62.11Zm725.43-221.1h-62.11v62.11h62.11v-62.11Zm0,110.55h-62.11v62.11h62.11v-62.11Zm0,110.55h-62.11v62.11h62.11v-62.11Zm110.55-221.1h-62.11v62.11h62.11v-62.11Zm0,110.55h-62.11v62.11h62.11v-62.11Zm0,110.55h-62.11v62.11h62.11v-62.11Zm110.55-221.1h-62.11v62.11h62.11v-62.11Zm0,110.55h-62.11v62.11h62.11v-62.11Zm0,110.55h-62.11v62.11h62.11v-62.11ZM331.66,1216.08h62.11v62.11h-62.11v-62.11Zm110.55,0h62.11v62.11h-62.11v-62.11Zm110.55,0h62.11v62.11h-62.11v-62.11ZM209.98,207.49h43.48v43.47h-43.48v-43.47Zm-38.35-95.49h43.48v43.47h-43.48v-43.47Zm-99.84-13.2h34.16v34.16h-34.16v-34.16ZM123.02,25.04h24.84v24.84h-24.84V25.04Zm-3.1,168.47h24.84v24.84h-24.84v-24.84Zm616.63,13.98h-43.47v43.47h43.47v-43.47Zm38.35-95.49h-43.48v43.47h43.48v-43.47Zm99.84-13.2h-34.16v34.16h34.16v-34.16Zm-51.24-73.76h-24.84v24.84h24.84V25.04Zm3.11,168.47h-24.84v24.84h24.84v-24.84ZM209.98,739.04h43.48v-43.48h-43.48v43.48Zm-38.35,95.49h43.48v-43.48h-43.48v43.48Zm-99.84,13.2h34.16v-34.16h-34.16v34.16Zm51.24,73.76h24.84v-24.84h-24.84v24.84Zm-3.1-168.47h24.84v-24.84h-24.84v24.84Zm66.35,232.9h34.16v-34.16h-34.16v34.16Zm-111.41,60.56h24.84v-24.84h-24.84v24.84Zm661.69-307.43h-43.47v-43.48h43.47v43.48Zm38.35,95.49h-43.48v-43.48h43.48v43.48Zm99.84,13.2h-34.16v-34.16h34.16v34.16Zm-51.24,73.76h-24.84v-24.84h24.84v24.84Zm3.11-168.47h-24.84v-24.84h24.84v24.84Zm-66.35,232.9h-34.16v-34.16h34.16v34.16Zm111.41,60.56h-24.84v-24.84h24.84v24.84ZM331.66,0h62.11V62.11h-62.11V0Z" style="clip-rule: evenodd; fill: none;"/>
    </clipPath>
    <linearGradient id="e" x1="1054.89" y1="-91.82" x2="322.43" y2="828.64" gradientUnits="userSpaceOnUse">
      <stop offset="0" stop-color="#00630c"/>
      <stop offset="1" stop-color="#51ff00"/>
    </linearGradient>
  </defs>
  <g id="c" data-name="Layer 1">
    <g style="clip-path: url(#d);">
      <rect width="946.53" height="1278.19" style="fill: url(#e);"/>
    </g>
  </g>
</svg>